# File produced by Open Asset Import Library (http://www.assimp.sf.net)
# (assimp v3.1.206520482)

adobe_mdllib Adobe Dimension.mdl

# 8 vertex positions
v -50 375 50
v -50 350 50
v -50 350 425
v -50 375 425
v 50 350 425
v 50 350 50
v 50 375 50
v 50 375 425

# 24 UV coordinates
vt 0.0005 0.695961 0
vt 0.0005 0.629361 0
vt 0.9995 0.629361 0
vt 0.9995 0.695961 0
vt 0.9995 0.0671001 0
vt 0.0005 0.0671001 0
vt 0.0005 0.0005 0
vt 0.9995 0.0005 0
vt 0.9995 0.619062 0
vt 0.0005 0.619062 0
vt 0.0005 0.352662 0
vt 0.9995 0.352662 0
vt 0.0671001 0.967032 0
vt 0.000500016 0.967032 0
vt 0.00050001 0.700631 0
vt 0.0671001 0.700631 0
vt 0.9995 0.342363 0
vt 0.0005 0.342363 0
vt 0.0005 0.0759633 0
vt 0.9995 0.0759633 0
vt 0.342363 0.700631 0
vt 0.342363 0.767232 0
vt 0.0759633 0.767232 0
vt 0.0759633 0.700631 0

# 6 vertex normals
vn -1 -4.31284e-07 -1.7584e-07
vn 1 2.37498e-07 1.62921e-07
vn 1.94881e-08 -1 2.9573e-15
vn -1.62921e-07 -6.12323e-17 1
vn -1.94881e-08 1 -2.9573e-15
vn 1.62921e-07 6.12323e-17 -1

# Mesh 'Box011_Box011' with 12 faces
g Box011_Box011
usemtl MATERIAL_DOORFRAMEBOTTOM
f 1/1/1 2/2/1 3/3/1
f 3/3/1 4/4/1 1/1/1
f 5/5/2 6/6/2 7/7/2
f 7/7/2 8/8/2 5/5/2
f 3/9/3 2/10/3 6/11/3
f 6/11/3 5/12/3 3/9/3
f 4/13/4 3/14/4 5/15/4
f 5/15/4 8/16/4 4/13/4
f 1/17/5 4/18/5 8/19/5
f 8/19/5 7/20/5 1/17/5
f 2/21/6 1/22/6 7/23/6
f 7/23/6 6/24/6 2/21/6

