# File produced by Open Asset Import Library (http://www.assimp.sf.net)
# (assimp v3.1.206520482)

adobe_mdllib Adobe Dimension.mdl

# 8 vertex positions
v 22.5 100 22.5
v -22.5 100 22.5
v -22.5 100 -22.5
v 22.5 100 -22.5
v -22.5 150 -22.5
v -22.5 150 22.5
v 22.5 150 22.5
v 22.5 150 -22.5

# 4 UV coordinates
vt 0 0 0
vt 1 0 0
vt 1 1 0
vt 0 1 0

# 6 vertex normals
vn 0 -1 -6.12323e-17
vn 0 1 6.12323e-17
vn 0 -6.12323e-17 1
vn 1 0 0
vn 0 6.12323e-17 -1
vn -1 0 0

# Mesh 'Box002_Box002' with 12 faces
g Box002_Box002
usemtl MATERIAL_TILEDOORFRAME
f 1/1/1 2/2/1 3/3/1
f 3/3/1 4/4/1 1/1/1
f 5/4/2 6/1/2 7/2/2
f 7/2/2 8/3/2 5/4/2
f 6/4/3 2/1/3 1/2/3
f 1/2/3 7/3/3 6/4/3
f 7/4/4 1/1/4 4/2/4
f 4/2/4 8/3/4 7/4/4
f 8/4/5 4/1/5 3/2/5
f 3/2/5 5/3/5 8/4/5
f 5/4/6 3/1/6 2/2/6
f 2/2/6 6/3/6 5/4/6

