# File produced by Open Asset Import Library (http://www.assimp.sf.net)
# (assimp v3.1.206520482)

adobe_mdllib Adobe Dimension.mdl

# 20 vertex positions
v 45.6667 0 45.6667
v -45.6667 0 45.6667
v -45.6667 0 -45.6667
v 45.6667 0 -45.6667
v -22.8334 100 -22.8334
v -22.8334 100 22.8334
v 22.8334 100 22.8334
v 22.8334 100 -22.8334
v -45.6667 39.6926 45.6667
v 45.6667 39.6926 45.6667
v 45.6667 39.6926 -45.6667
v -45.6667 39.6926 -45.6667
v -22.8334 50 22.8334
v -33.7807 50 33.7807
v 33.7807 50 33.7807
v 22.8334 50 22.8334
v 33.7807 50 -33.7807
v 22.8334 50 -22.8334
v -33.7807 50 -33.7807
v -22.8334 50 -22.8334

# 52 UV coordinates
vt 0.586119 0.577095 0
vt 0.176483 0.577095 0
vt 0.176483 0.167459 0
vt 0.586119 0.167459 0
vt 0.794682 0.597897 0
vt 0.794682 0.393079 0
vt 0.9995 0.393079 0
vt 0.9995 0.597897 0
vt 0.00050002 0.578087 0
vt 0.163095 0.578087 0
vt 0.163095 0.987723 0
vt 0.0005 0.987723 0
vt 0.00501239 0.163095 0
vt 0.00501239 0.0005 0
vt 0.414648 0.0005 0
vt 0.414648 0.163095 0
vt 0.00050002 0.167459 0
vt 0.163095 0.167459 0
vt 0.163095 0.577095 0
vt 0.0005 0.577095 0
vt 0.415641 0.163095 0
vt 0.415641 0.0005 0
vt 0.825277 0.0005 0
vt 0.825277 0.163095 0
vt 0.278892 0.680496 0
vt 0.229793 0.631396 0
vt 0.53281 0.631396 0
vt 0.48371 0.680496 0
vt 0.53281 0.934413 0
vt 0.48371 0.885314 0
vt 0.229793 0.934413 0
vt 0.278892 0.885314 0
vt 0.587112 0.609674 0
vt 0.79193 0.609674 0
vt 0.79193 0.814492 0
vt 0.587112 0.814492 0
vt 0.794682 0.381301 0
vt 0.794682 0.176483 0
vt 0.9995 0.176483 0
vt 0.9995 0.381301 0
vt 0.587112 0.393079 0
vt 0.79193 0.393079 0
vt 0.79193 0.597897 0
vt 0.587112 0.597897 0
vt 0.587112 0.381301 0
vt 0.587112 0.176483 0
vt 0.79193 0.176483 0
vt 0.79193 0.381301 0
vt 0.176483 0.578087 0
vt 0.586119 0.578087 0
vt 0.586119 0.987723 0
vt 0.176483 0.987723 0

# 14 vertex normals
vn 0 -1 -6.12323e-17
vn 0 1 6.12323e-17
vn 0 -6.12323e-17 1
vn 1 0 0
vn 0 6.12323e-17 -1
vn -1 0 0
vn 0 0.755495 0.655155
vn 0 0.755495 0.655155
vn 0.655155 0.755495 4.62607e-17
vn 0.655155 0.755495 4.62607e-17
vn 0 0.755495 -0.655155
vn 0 0.755495 -0.655155
vn -0.655155 0.755495 4.62607e-17
vn -0.655155 0.755495 4.62607e-17

# Mesh 'Box001_Box001' with 36 faces
g Box001_Box001
usemtl MATERIAL_BASEDOORFRAMEBORDER
f 1/1/1 2/2/1 3/3/1
f 3/3/1 4/4/1 1/1/1
f 5/5/2 6/6/2 7/7/2
f 7/7/2 8/8/2 5/5/2
f 9/9/3 2/10/3 1/11/3
f 1/11/3 10/12/3 9/9/3
f 10/13/4 1/14/4 4/15/4
f 4/15/4 11/16/4 10/13/4
f 11/17/5 4/18/5 3/19/5
f 3/19/5 12/20/5 11/17/5
f 12/21/6 3/22/6 2/23/6
f 2/23/6 9/24/6 12/21/6
f 13/25/2 14/26/2 15/27/2
f 15/27/2 16/28/2 13/25/2
f 16/28/2 15/27/2 17/29/2
f 17/29/2 18/30/2 16/28/2
f 18/30/2 17/29/2 19/31/2
f 19/31/2 20/32/2 18/30/2
f 20/32/2 19/31/2 14/26/2
f 14/26/2 13/25/2 20/32/2
f 6/33/3 13/34/3 16/35/3
f 16/35/3 7/36/3 6/33/3
f 7/37/4 16/38/4 18/39/4
f 18/39/4 8/40/4 7/37/4
f 8/41/5 18/42/5 20/43/5
f 20/43/5 5/44/5 8/41/5
f 5/45/6 20/46/6 13/47/6
f 13/47/6 6/48/6 5/45/6
f 15/27/7 14/26/7 9/49/8
f 9/49/8 10/50/8 15/27/7
f 17/29/9 15/27/9 10/50/10
f 10/50/10 11/51/10 17/29/9
f 19/31/11 17/29/11 11/51/12
f 11/51/12 12/52/12 19/31/11
f 14/26/13 19/31/13 12/52/14
f 12/52/14 9/49/14 14/26/13

